<svg xmlns="http://www.w3.org/2000/svg" viewBox="0 0 300 192"><path d="M205.86,149.58l8.5-63.87a1.89,1.89,0,0,1,1.87-1.65H223a1.89,1.89,0,0,1,1.89,1.9c0,.4-2.09,15.69-2.13,16.12,6.62-4.75,19.64-4,21.69,4.85,1.47,2.23-4.76,40-4.87,43.31a1.89,1.89,0,0,1-1.87,1.64h-6.75A1.89,1.89,0,0,1,229,150c0-.5,4.6-34.62,4.67-35.12h0c.19-2,.53-4.81-1.5-5.55a8.92,8.92,0,0,0-8.5,2h0a10.38,10.38,0,0,0-3.07,6.5l-4.32,32.43a1.9,1.9,0,0,1-1.88,1.64H207.7a1.89,1.89,0,0,1-1.84-2.3ZM3.65,133.71H10.3A2,2,0,0,1,12,136.59h0c-1.17,4.34.95,6.89,5.57,6.72a9.28,9.28,0,0,0,2.92-.43A6.52,6.52,0,0,0,25,137.23c.3-3.78-2.75-5.25-6.44-6.69-3.86-1.32-9.68-4.09-11.37-6.68h0c-3.12-4.41-2.2-11.57.09-16.26h0a15.5,15.5,0,0,1,3.79-4.79h0c6-5,17.67-5.72,23.4,0h0c2.76,3.18,3.23,6.67,2.68,11.45a2.1,2.1,0,0,1-2,2.31H28.83a1.9,1.9,0,0,1-1.89-2.11c.07-2.32.32-4.86-1.94-5.8-5.45-1.56-10.42,1.48-9.34,7.54h0a2.2,2.2,0,0,0,.73,1.2h0s.05.07.07.07c1.61,1.27,3.16,1.79,6,2.81h0l1.49.5h0c4,1.31,8.24,3.27,10.26,6.72h0c3.46,6.8.7,16.49-5,21.29h0c-3.78,3.15-8.44,4.33-13.52,4.34h0c-6.71.19-12.88-3-14-9.86a21.38,21.38,0,0,1-.06-7c0-1.23.56-2.69,2-2.64Zm48,6.61a7,7,0,0,0,0,2.34,2.56,2.56,0,0,0,.76.2,21,21,0,0,0,3.74.19,2,2,0,0,1,2.58,2.18L58,151a1.87,1.87,0,0,1-1.75,1.65h0c-.35,0-.93,0-1.71.09s-3,.14-3.4.13h0c-3.13,0-5.85-.44-8.06-2.38h0c-2-1.92-2.5-4.28-2.13-7.34l4.47-33.53c-1.7-.25-6.42,1-6.4-1.9,0,.1.76-5.66.76-5.78a1.9,1.9,0,0,1,1.88-1.64h5l1.48-11.1A1.88,1.88,0,0,1,50,87.48h0c11.85-.29,8.08-.21,7,12.76h5.63a1.92,1.92,0,0,1,1.85,2.32l-.72,5.35a1.87,1.87,0,0,1-1.87,1.65H55.76l-4.11,30.76Zm41.48,11.61h0a1.91,1.91,0,0,0,1.57-1.62l.66-5c.33-1.73-1.51-2.62-3-2.08h0a1.89,1.89,0,0,1-.51,0,4.09,4.09,0,0,1,0-.89h0c0-.51,3.72-27.9,3.77-28.41.53-4.79.28-8.07-2.27-11.27h0c-2.81-3-6.6-3.69-11-3.74h0c-8.07-.19-14.81,3.44-17,11.6-2.72,8.36,1.37,5.85,7.26,6.24h0c3-.09,1.18-4.72,3.89-7h0c2-1.79,6.12-1.82,8.26-.5h0c1.28,1.32-.11,5.38-.11,7-.21,1.84-4.75,3.6-6.9,4.23h0c-5.13,1.73-9.9,3.47-13.21,6.72h0c-4.82,5.29-6.43,15.64-2.54,21.64,4.26,6.43,15.36,5.13,20.28-.31a6.12,6.12,0,0,0,.81,1.35h0a6.86,6.86,0,0,0,5.72,2.55A25.36,25.36,0,0,0,93.13,151.93Zm-9.82-24.05c-.47,3.3-.81,8.69-2.62,11.32h0a10.61,10.61,0,0,1-1.25,1.66h0a7.27,7.27,0,0,1-5.63,2.54h0a2.82,2.82,0,0,1-2.62-1.12h0c-1.39-2.64-.4-6.94,1.24-9.25,1.44-1.66,3.87-2.46,6.2-3.29A46.94,46.94,0,0,0,83.31,127.88Zm47.45,21.7,5.34-40.11c-.95,0-3.58,0-4.57,0a1.9,1.9,0,0,1-1.9-1.89c0,.14.75-5.61.75-5.7a1.9,1.9,0,0,1,1.88-1.64h5.07c.81-10.84,4-16.74,15.85-16.48,1.61.09,4.33.29,3.95,2.55l-.83,5.87c-.28,1.8-2,1.73-3.4,1.42-1.1-.07-2.66-.15-3.52.49h0c-1.08,1-1,4.73-1.36,6.15h5.09a1.9,1.9,0,0,1,1.89,1.9s-.74,5.54-.75,5.69a1.87,1.87,0,0,1-1.87,1.64H146.8l-5.42,40.76a1.89,1.89,0,0,1-1.88,1.64h-6.89a1.9,1.9,0,0,1-1.85-2.3Zm-32.88,0,6.35-47.7a1.9,1.9,0,0,1,1.88-1.64h6.2a2,2,0,0,1,1.79,2.67c3.27-3.45,7.89-2.57,12.14-2.69.86,0,2.08.51,2,1.62l-.7,5.3c-.62,4.58-7.17.24-11.75,5.36h0c-2.18,2.31-3.07,4.87-3.6,8.42l-3.9,29.31a1.89,1.89,0,0,1-1.87,1.64H99.74a1.9,1.9,0,0,1-1.86-2.3Zm60.49-55.17,1.16-8.7a1.89,1.89,0,0,1,1.92-1.65h6.85A1.89,1.89,0,0,1,170.19,86c0,.25-1.16,8.68-1.17,8.94a1.9,1.9,0,0,1-2,1.65h-6.81a1.91,1.91,0,0,1-1.88-2.13ZM151,149.74h0a1.89,1.89,0,0,0,1.86,2.13h6.86a1.87,1.87,0,0,0,1.91-1.64c0-.28,6.43-47.85,6.39-48.1a1.89,1.89,0,0,0-1.89-1.89H159.3a1.89,1.89,0,0,0-1.92,1.64L151,149.74Zm19.54-16h6.66a2,2,0,0,1,1.67,2.88h0c-1.19,4.33,1,6.89,5.56,6.72a9.28,9.28,0,0,0,2.92-.43,6.51,6.51,0,0,0,4.53-5.65c.3-3.78-2.75-5.25-6.44-6.69-3.85-1.32-9.69-4.09-11.37-6.68h0c-3.13-4.41-2.19-11.56.09-16.26h0a15.29,15.29,0,0,1,3.77-4.79h0c6-5,17.66-5.72,23.4,0h0c2.76,3.18,3.22,6.67,2.68,11.45a2.1,2.1,0,0,1-2,2.31h-6.35a1.91,1.91,0,0,1-1.89-2.11c.08-2.32.32-4.86-1.94-5.8h0c-5.48-1.55-10.39,1.46-9.35,7.54h0a2.27,2.27,0,0,0,.74,1.2h0l.07.07h0c1.61,1.27,3.15,1.79,6,2.81h0c.39.14,1.09.36,1.47.5h0c4,1.31,8.26,3.27,10.27,6.72h0c3.46,6.8.7,16.49-5,21.29h0c-3.77,3.15-8.43,4.33-13.52,4.34h0c-6.7.19-12.89-3-14-9.86a21.38,21.38,0,0,1-.06-7C168.56,135.12,169.11,133.66,170.55,133.71Z" fill="#005469" fill-rule="evenodd"/><path d="M262.1,118.91q16.13-21,32.21-42c8.07-10.48,4.28-9.23-7.32-18.29L240,21.93a67.83,67.83,0,0,0-8.2-5.86c-1.55-.88-2,0-1.42,1.64C245,59.24,254.73,92.05,259.59,118.29,260,120.25,260.68,120.79,262.1,118.91Z" fill="#56c3ce" fill-rule="evenodd"/><path d="M218.28,2c-9.15,12-17.74,25.21-26.59,37.51-5.48,7.84-2.8,6.79,5.86,13,12.86,9.19,25.55,19.06,38.83,27.61,4.83,3.07,3.65,1.11,2.91-3.11-3.87-21.82-10.08-46.23-19.13-74.54C219.92,1.19,219,1.12,218.28,2Z" fill="#005469" fill-rule="evenodd"/><path d="M223,176.93h2.79a.39.39,0,0,1,.39.46h0v0h0s0,0,0,0h0a2.78,2.78,0,0,0-.14.56h0a2.6,2.6,0,0,0,.49,2.16h0a3.1,3.1,0,0,0,2.3.73h0a4.46,4.46,0,0,0,1.36-.2l.19-.07h0c3.1-1.52,2.44-5-1-5.85h0c-1.54-.54-3.93-1.65-4.59-2.67h0c-1.54-2.46-.64-6.44,1.57-8.29h0c2.35-2,7-2.27,9.25,0h0c1.08,1.24,1.25,2.6,1,4.48,0,.27-.09.63-.43.62h-2.68c-.93-.18.35-2.69-1.44-3.28h0c-2.43-.86-5.09.93-4.45,3.63h0a1.27,1.27,0,0,0,.42.68h0a7.86,7.86,0,0,0,2.71,1.31h0l.62.21c1.58.52,3.29,1.27,4.08,2.64h0c1.36,2.68.25,6.53-2,8.42h0a8.17,8.17,0,0,1-5.42,1.72h0a5.67,5.67,0,0,1-4.55-1.7h0c-1.08-1.41-1.21-2.84-1-4.9C222.59,177.4,222.6,176.91,223,176.93Z" fill="#00b0c4" fill-rule="evenodd"/><path d="M221.08,177.53c-.58,2.79-2.11,5.22-4.68,6.24-2.72,1.07-6.6.64-7.89-2.32h0c-1.8-4.48-.63-12.36,2.24-16.39a7,7,0,0,1,2.5-2h0c4.64-2.13,9.86.63,8.83,6.17,0,.27,0,.77-.45.75h0c-5.14.16-2-.15-3.55-3.41h0c-.61-1.13-2.45-1.08-3.45-.5-2.26,1.59-2.38,4.6-2.89,7.42h0c-.26,1.77-.43,4.72.05,5.94h0c.61,2,3.52,2,4.64.41.78-.64.87-3,1.78-2.9h2.37C220.77,176.93,221.21,176.9,221.08,177.53Z" fill="#00b0c4" fill-rule="evenodd"/><polygon points="203.36 163.68 200.8 182.97 202.89 182.97 205.46 163.68 203.36 163.68" fill="#00b0c4" fill-rule="evenodd"/><path d="M200,183.3l2.68-20.07a.39.39,0,0,1,.39-.34s2.88,0,2.89,0a.4.4,0,0,1,.39.45h0l-2.68,20.07a.38.38,0,0,1-.39.34h-2.89A.39.39,0,0,1,200,183.3Z" fill="#00b0c4" fill-rule="evenodd"/><polygon points="204.26 156.9 203.89 159.75 205.98 159.75 206.35 156.9 204.26 156.9" fill="#00b0c4" fill-rule="evenodd"/><path d="M203,160.1l.48-3.64a.43.43,0,0,1,.41-.35h2.88a.39.39,0,0,1,.39.45h0l-.48,3.64a.39.39,0,0,1-.42.34h-2.87A.38.38,0,0,1,203,160.1Z" fill="#00b0c4" fill-rule="evenodd"/><path d="M194.93,180.3c-.3.22,1.85-14.39,1.83-14.71a.4.4,0,0,1,.4-.38h2.92l.2-1.53h-2.81c-.26,0-.44-.31-.39-.45s.65-4.9.65-4.9h-1.94l-.66,5a.39.39,0,0,1-.4.36h-2.44l-.21,1.53h2.34c1.43.42-3,16.88-1.07,17.46h0a3.81,3.81,0,0,0,2.57.69l1.37-.05h0l.38,0,.21-1.65C196.65,181.61,195.1,181.73,194.93,180.3Z" fill="#00b0c4" fill-rule="evenodd"/><path d="M195.74,179.25c0,.74-.24,1.42.64,1.51a10.5,10.5,0,0,0,1.67.09c.32-.11.72,0,.66.42l-.3,2.44a.4.4,0,0,1-.37.35,6.16,6.16,0,0,1-.7,0,1.77,1.77,0,0,1-.33,0c-.34,0-1,0-1.09,0a4.55,4.55,0,0,1-3.11-.89h0a3,3,0,0,1-.77-2.74L194,166h-2.33a.4.4,0,0,1-.39-.48l.31-2.3a.4.4,0,0,1,.39-.34h2.44l.67-5a.39.39,0,0,1,.39-.34h0c4.52,0,3-.67,2.48,5.35h2.81a.39.39,0,0,1,.38.49l-.29,2.28a.41.41,0,0,1-.4.35H197.5Z" fill="#00b0c4" fill-rule="evenodd"/><path d="M178.28,177.72h-1.93c-.23,1.83-.15,3.13.79,4.36h0a4.92,4.92,0,0,0,3.94,1.43A7.5,7.5,0,0,0,186,182h0c1.95-1.66,3-5,1.81-7.42h0c-.73-1.19-2.25-1.82-3.66-2.28h0l-.61-.2a8.35,8.35,0,0,1-3-1.49h0a2.09,2.09,0,0,1-.62-1.05h0c-.81-3.3,2.47-5.68,5.49-4.57,1.34.48,1.66,1.89,1.6,3.24h1.89c.18-1.62.07-2.74-.83-3.79h0c-2-1.91-6.11-1.62-8.16.09h0c-1.89,1.61-2.73,5.07-1.43,7.22h0c.58.88,2.87,1.94,4.25,2.4,4.13,1.14,4.7,5.56,1,7.32l-.23.09h0a5.12,5.12,0,0,1-1.6.23h0a3.77,3.77,0,0,1-2.88-1h0A3.42,3.42,0,0,1,178.28,177.72Z" fill="#00b0c4" fill-rule="evenodd"/><path d="M176,176.93h2.79a.38.38,0,0,1,.39.46h0v0h0v0h0a2.84,2.84,0,0,0,.36,2.74h0a3.14,3.14,0,0,0,2.31.73,4.4,4.4,0,0,0,1.35-.2l.19-.07h0c3.07-1.48,2.47-4.93-.92-5.84h-.06c-1.53-.54-3.93-1.65-4.58-2.67h0c-1.56-2.45-.65-6.44,1.55-8.29h0c2.36-2,7-2.28,9.26,0h0l0,0c1.06,1.24,1.21,2.59,1,4.46,0,.27-.09.63-.43.62h-2.68c-.92-.16.35-2.69-1.44-3.28h0c-2.43-.86-5.08.93-4.45,3.63h0a1.45,1.45,0,0,0,.42.68h0a7.83,7.83,0,0,0,2.69,1.31h0l.63.21h0c1.58.52,3.29,1.27,4.08,2.64h0c1.35,2.68.24,6.53-2,8.42h0a8.17,8.17,0,0,1-5.42,1.72,5.67,5.67,0,0,1-4.55-1.7h0c-1.08-1.41-1.21-2.84-1-4.9C175.59,177.41,175.6,176.91,176,176.93Z" fill="#00b0c4" fill-rule="evenodd"/><polygon points="171.61 163.68 169.04 182.97 171.14 182.97 173.7 163.68 171.61 163.68" fill="#00b0c4" fill-rule="evenodd"/><path d="M168.2,183.3l2.67-20.07a.4.4,0,0,1,.39-.34s2.88,0,2.9,0a.41.41,0,0,1,.39.45h0l-2.67,20.07a.4.4,0,0,1-.4.34h-2.89A.39.39,0,0,1,168.2,183.3Z" fill="#00b0c4" fill-rule="evenodd"/><polygon points="172.51 156.9 172.13 159.75 174.22 159.75 174.61 156.9 172.51 156.9" fill="#00b0c4" fill-rule="evenodd"/><path d="M171.28,160.1l.5-3.64a.39.39,0,0,1,.39-.35h2.89a.39.39,0,0,1,.39.45h0L175,160.2a.37.37,0,0,1-.41.34h-2.87A.4.4,0,0,1,171.28,160.1Z" fill="#00b0c4" fill-rule="evenodd"/><path d="M151.51,184.82h2.77a.4.4,0,0,1,.39.42h0a1.7,1.7,0,0,0,.53,1.51h0a3.18,3.18,0,0,0,2,.52h0c2.82.15,3.87-2.47,4.19-4.94a5.68,5.68,0,0,1-1.25,1h0a6.06,6.06,0,0,1-3,.74,4.59,4.59,0,0,1-4.56-3h0c-1.88-5.35-.38-18.95,7.56-18.68a4.71,4.71,0,0,1,2.84.81h0a3.5,3.5,0,0,1,.86.9c.1-.31,0-1.26.51-1.24h2.72a.4.4,0,0,1,.4.39c-.51,2.63-2.29,20.58-3.47,22.59-1.72,4.74-9.3,6.61-12.37,2.31C151.23,187.69,150.48,185,151.51,184.82Zm4.3-11.4c-.19,2.69-1.22,7.24,2.31,7.39h0a3.2,3.2,0,0,0,2.87-1.67h0c1.31-2.16,4-13.81-.82-13.52h0C156.62,165.9,156.43,170.16,155.81,173.42Z" fill="#00b0c4" fill-rule="evenodd"/><path d="M134.78,173.27h0c.59-5.27,2.94-11.13,8.85-11h0c6.21-.21,6.83,6.05,6,11.06-.34,2.78-1.32,6.42-2.87,8.22h0a7.24,7.24,0,0,1-6,2.69c-2.62,0-4.4-.92-5.38-2.74h0c-1.18-2.42-1-5.22-.66-8.28Zm3.79.11c-.23,2.88-1.26,7.72,2.56,7.73,3.86-.15,4.13-4.6,4.73-7.83.21-2.93,1.28-7.55-2.56-7.7h0C139.41,165.71,139.16,170.14,138.57,173.38Z" fill="#00b0c4" fill-rule="evenodd"/><polygon points="131.32 156.91 127.85 182.96 129.84 182.96 133.3 156.91 131.32 156.91" fill="#00b0c4" fill-rule="evenodd"/><path d="M127,183.27c.37-.35,3-27.27,4-27.16h2.79a.4.4,0,0,1,.4.4c-.38.43-3,27.28-4,27.24h-2.81A.38.38,0,0,1,127,183.27Z" fill="#00b0c4" fill-rule="evenodd"/></svg>